<svg xmlns="http://www.w3.org/2000/svg" id="favlogo" width="64" height="64" fill="currentcolor" viewBox="0 0 512 512"><style>@media (prefers-color-scheme:dark){#favlogo{fill:#fff}}</style><path d="M384 192.167V149.5h42.667v42.667Zm42.667 42.666v-42.666h42.666v42.666Zm42.666 0H512V277.5h-42.667Zm0 85.334h-42.666V277.5h42.666Zm-42.666 0v42.666H384v-42.666Zm-213.334-128V149.5h128v42.667Zm0 170.666v-42.666h-42.666v-128h42.666v128h85.334V277.5H256v-42.667h85.333v128Zm-128-170.666V149.5H128v42.667Zm0 42.666H42.667v-42.666h42.666Zm-42.666 0V277.5H0v-42.667Zm0 85.334V277.5h42.666v42.667Zm42.666 0H128v42.666H85.333Z"/></svg>