<svg xmlns="http://www.w3.org/2000/svg" width="512" height="512"><path fill="#111624" fill-rule="evenodd" d="M0 512h512V0H0Z"/><path fill="#fff" fill-rule="evenodd" d="M352.7 207.8v-32.3H385v32.3Zm32.3 32.3v-32.3h32.3v32.3Zm32.3 0h32.3v32.3h-32.3Zm0 64.6H385v-32.3h32.3Zm-32.3 0V337h-32.3v-32.3Zm-161.5-96.9v-32.3h96.9v32.3Zm0 129.2v-32.3h-32.3v-96.9h32.3v96.9h64.6v-32.3h-32.3v-32.3h64.6V337Zm-96.9-129.2v-32.3h32.3v32.3Zm0 32.3H94.3v-32.3h32.3Zm-32.3 0v32.3H62v-32.3Zm0 64.6v-32.3h32.3v32.3Zm32.3 0h32.3V337h-32.3Z"/></svg>